<svg xmlns="http://www.w3.org/2000/svg" viewBox="0 0 24 24" fill="#FBBF24">
  <path d="M18.09 2.23c-.86-.31-1.79-.31-2.65 0-1.91.69-3.06 2.41-3.06 4.57 0 .73.13 1.41.39 2.03-2.09.87-4.4 2.38-6.41 4.54-2.07 2.22-3.43 4.64-3.84 6.82-.18.96-.2 1.84.01 2.6.21.74.63 1.35 1.26 1.79.62.43 1.4.64 2.27.64.96 0 2-.26 3.07-.77 2.13-1.01 4.36-2.96 6.28-5.49 1.87-2.46 3.3-5.2 4.04-7.71.37-1.26.55-2.44.52-3.48-.03-1.08-.28-2.01-.74-2.73-.48-.75-1.16-1.26-2.04-1.54-.3-.11-.61-.19-.93-.24l-.17-.03zm-.64 1.51c.24.04.46.1.66.18.52.19.89.48 1.12.88.26.44.4 1.04.42 1.79.02.79-.13 1.73-.43 2.78-.67 2.28-1.98 4.8-3.71 7.08-1.74 2.29-3.75 4.05-5.64 4.95-.91.43-1.74.65-2.43.65-.57 0-1.05-.13-1.39-.37-.33-.23-.56-.56-.69-1.01-.13-.47-.12-1.07.03-1.79.35-1.88 1.54-4.06 3.37-6.03 1.81-1.94 3.91-3.32 5.79-4.04l.64-.24.24-.64c-.2-.43-.3-.93-.3-1.48 0-1.53.77-2.66 2.03-3.12.29-.1.61-.17.93-.17l.36-.42z"/>
</svg>
